<svg width="94" height="94" viewBox="0 0 94 94" fill="none" xmlns="http://www.w3.org/2000/svg">
    <rect x="12" width="70" height="65" rx="9" fill="#D9D9D9"/>
    <path d="M7.3125 84V92H6.375L2.01563 85.7187H1.9375V92H0.96875V84H1.90625L6.28125 90.2969H6.35938V84H7.3125ZM11.5635 92.125C11.0218 92.125 10.5465 91.9961 10.1377 91.7383C9.73145 91.4805 9.41374 91.1198 9.18457 90.6562C8.95801 90.1927 8.84473 89.651 8.84473 89.0312C8.84473 88.4062 8.95801 87.8607 9.18457 87.3945C9.41374 86.9284 9.73145 86.5664 10.1377 86.3086C10.5465 86.0508 11.0218 85.9219 11.5635 85.9219C12.1051 85.9219 12.5791 86.0508 12.9854 86.3086C13.3942 86.5664 13.7119 86.9284 13.9385 87.3945C14.1676 87.8607 14.2822 88.4062 14.2822 89.0312C14.2822 89.651 14.1676 90.1927 13.9385 90.6562C13.7119 91.1198 13.3942 91.4805 12.9854 91.7383C12.5791 91.9961 12.1051 92.125 11.5635 92.125ZM11.5635 91.2969C11.9749 91.2969 12.3135 91.1914 12.5791 90.9805C12.8447 90.7695 13.0413 90.4922 13.1689 90.1484C13.2965 89.8047 13.3604 89.4323 13.3604 89.0312C13.3604 88.6302 13.2965 88.2565 13.1689 87.9102C13.0413 87.5638 12.8447 87.2839 12.5791 87.0703C12.3135 86.8568 11.9749 86.75 11.5635 86.75C11.152 86.75 10.8135 86.8568 10.5479 87.0703C10.2822 87.2839 10.0856 87.5638 9.95801 87.9102C9.8304 88.2565 9.7666 88.6302 9.7666 89.0312C9.7666 89.4323 9.8304 89.8047 9.95801 90.1484C10.0856 90.4922 10.2822 90.7695 10.5479 90.9805C10.8135 91.1914 11.152 91.2969 11.5635 91.2969ZM15.6895 92V86H16.5801V86.9375H16.6582C16.7832 86.6172 16.985 86.3685 17.2637 86.1914C17.5423 86.0117 17.877 85.9219 18.2676 85.9219C18.6634 85.9219 18.9928 86.0117 19.2559 86.1914C19.5215 86.3685 19.7285 86.6172 19.877 86.9375H19.9395C20.0931 86.6276 20.3236 86.3815 20.6309 86.1992C20.9382 86.0143 21.3066 85.9219 21.7363 85.9219C22.2728 85.9219 22.7116 86.0898 23.0527 86.4258C23.3939 86.7591 23.5645 87.2786 23.5645 87.9844V92H22.6426V87.9844C22.6426 87.5417 22.5215 87.2253 22.2793 87.0352C22.0371 86.8451 21.752 86.75 21.4238 86.75C21.002 86.75 20.6751 86.8776 20.4434 87.1328C20.2116 87.3854 20.0957 87.7057 20.0957 88.0937V92H19.1582V87.8906C19.1582 87.5495 19.0475 87.2747 18.8262 87.0664C18.6048 86.8555 18.3197 86.75 17.9707 86.75C17.7311 86.75 17.5072 86.8138 17.2988 86.9414C17.0931 87.069 16.9264 87.2461 16.7988 87.4727C16.6738 87.6966 16.6113 87.9557 16.6113 88.25V92H15.6895ZM27.7656 92.125C27.1875 92.125 26.6888 91.9974 26.2695 91.7422C25.8529 91.4844 25.5313 91.125 25.3047 90.6641C25.0807 90.2005 24.9688 89.6615 24.9688 89.0469C24.9688 88.4323 25.0807 87.8906 25.3047 87.4219C25.5313 86.9505 25.8464 86.5833 26.25 86.3203C26.6563 86.0547 27.1302 85.9219 27.6719 85.9219C27.9844 85.9219 28.293 85.974 28.5977 86.0781C28.9023 86.1823 29.1797 86.3516 29.4297 86.5859C29.6797 86.8177 29.8789 87.125 30.0273 87.5078C30.1758 87.8906 30.25 88.362 30.25 88.9219V89.3125H25.625V88.5156H29.3125C29.3125 88.1771 29.2448 87.875 29.1094 87.6094C28.9766 87.3437 28.7865 87.1341 28.5391 86.9805C28.2943 86.8268 28.0052 86.75 27.6719 86.75C27.3047 86.75 26.987 86.8411 26.7188 87.0234C26.4531 87.2031 26.2487 87.4375 26.1055 87.7266C25.9622 88.0156 25.8906 88.3255 25.8906 88.6562V89.1875C25.8906 89.6406 25.9688 90.0247 26.125 90.3398C26.2839 90.6523 26.5039 90.8906 26.7852 91.0547C27.0664 91.2161 27.3932 91.2969 27.7656 91.2969C28.0078 91.2969 28.2266 91.263 28.4219 91.1953C28.6198 91.125 28.7904 91.0208 28.9336 90.8828C29.0768 90.7422 29.1875 90.5677 29.2656 90.3594L30.1563 90.6094C30.0625 90.9115 29.9049 91.1771 29.6836 91.4062C29.4622 91.6328 29.1888 91.8099 28.8633 91.9375C28.5378 92.0625 28.1719 92.125 27.7656 92.125ZM39.2461 86C39.1992 85.6042 39.0091 85.2969 38.6758 85.0781C38.3424 84.8594 37.9336 84.75 37.4492 84.75C37.0951 84.75 36.7852 84.8073 36.5195 84.9219C36.2565 85.0365 36.0508 85.194 35.9023 85.3945C35.7565 85.5951 35.6836 85.8229 35.6836 86.0781C35.6836 86.2917 35.7344 86.4753 35.8359 86.6289C35.9401 86.7799 36.0729 86.9062 36.2344 87.0078C36.3958 87.1068 36.5651 87.1888 36.7422 87.2539C36.9193 87.3164 37.082 87.3672 37.2305 87.4062L38.043 87.625C38.2513 87.6797 38.4831 87.7552 38.7383 87.8516C38.9961 87.9479 39.2422 88.0794 39.4766 88.2461C39.7135 88.4102 39.9089 88.6211 40.0625 88.8789C40.2161 89.1367 40.293 89.4531 40.293 89.8281C40.293 90.2604 40.1797 90.651 39.9531 91C39.7292 91.349 39.401 91.6263 38.9688 91.832C38.5391 92.0378 38.0169 92.1406 37.4023 92.1406C36.8294 92.1406 36.3333 92.0482 35.9141 91.8633C35.4974 91.6784 35.1693 91.4206 34.9297 91.0898C34.6927 90.7591 34.5586 90.375 34.5273 89.9375H35.5273C35.5534 90.2396 35.6549 90.4896 35.832 90.6875C36.0117 90.8828 36.2383 91.0286 36.5117 91.125C36.7878 91.2187 37.0846 91.2656 37.4023 91.2656C37.7721 91.2656 38.1042 91.2057 38.3984 91.0859C38.6927 90.9635 38.9258 90.7943 39.0977 90.5781C39.2695 90.3594 39.3555 90.1042 39.3555 89.8125C39.3555 89.5469 39.2813 89.3307 39.1328 89.1641C38.9844 88.9974 38.7891 88.862 38.5469 88.7578C38.3047 88.6536 38.043 88.5625 37.7617 88.4844L36.7773 88.2031C36.1523 88.0234 35.6576 87.7669 35.293 87.4336C34.9284 87.1003 34.7461 86.6641 34.7461 86.125C34.7461 85.6771 34.8672 85.2865 35.1094 84.9531C35.3542 84.6172 35.6823 84.3568 36.0938 84.1719C36.5078 83.9844 36.9701 83.8906 37.4805 83.8906C37.9961 83.8906 38.4544 83.9831 38.8555 84.168C39.2565 84.3503 39.5742 84.6003 39.8086 84.918C40.0456 85.2357 40.1706 85.5964 40.1836 86H39.2461ZM44.1982 92.125C43.6566 92.125 43.1813 91.9961 42.7725 91.7383C42.3662 91.4805 42.0485 91.1198 41.8193 90.6562C41.5928 90.1927 41.4795 89.651 41.4795 89.0312C41.4795 88.4062 41.5928 87.8607 41.8193 87.3945C42.0485 86.9284 42.3662 86.5664 42.7725 86.3086C43.1813 86.0508 43.6566 85.9219 44.1982 85.9219C44.7399 85.9219 45.2139 86.0508 45.6201 86.3086C46.029 86.5664 46.3467 86.9284 46.5732 87.3945C46.8024 87.8607 46.917 88.4062 46.917 89.0312C46.917 89.651 46.8024 90.1927 46.5732 90.6562C46.3467 91.1198 46.029 91.4805 45.6201 91.7383C45.2139 91.9961 44.7399 92.125 44.1982 92.125ZM44.1982 91.2969C44.6097 91.2969 44.9482 91.1914 45.2139 90.9805C45.4795 90.7695 45.6761 90.4922 45.8037 90.1484C45.9313 89.8047 45.9951 89.4323 45.9951 89.0312C45.9951 88.6302 45.9313 88.2565 45.8037 87.9102C45.6761 87.5638 45.4795 87.2839 45.2139 87.0703C44.9482 86.8568 44.6097 86.75 44.1982 86.75C43.7868 86.75 43.4482 86.8568 43.1826 87.0703C42.917 87.2839 42.7204 87.5638 42.5928 87.9102C42.4652 88.2565 42.4014 88.6302 42.4014 89.0312C42.4014 89.4323 42.4652 89.8047 42.5928 90.1484C42.7204 90.4922 42.917 90.7695 43.1826 90.9805C43.4482 91.1914 43.7868 91.2969 44.1982 91.2969ZM48.4492 92V84H49.3711V86.9531H49.4492C49.5169 86.849 49.6107 86.7161 49.7305 86.5547C49.8529 86.3906 50.0273 86.2448 50.2539 86.1172C50.4831 85.987 50.793 85.9219 51.1836 85.9219C51.6888 85.9219 52.1341 86.0482 52.5195 86.3008C52.9049 86.5534 53.2057 86.9115 53.4219 87.375C53.638 87.8385 53.7461 88.3854 53.7461 89.0156C53.7461 89.651 53.638 90.2018 53.4219 90.668C53.2057 91.1315 52.9063 91.4909 52.5234 91.7461C52.1406 91.9987 51.6992 92.125 51.1992 92.125C50.8138 92.125 50.5052 92.0612 50.2734 91.9336C50.0417 91.8034 49.8633 91.6562 49.7383 91.4922C49.6133 91.3255 49.5169 91.1875 49.4492 91.0781H49.3398V92H48.4492ZM49.3555 89C49.3555 89.4531 49.4219 89.8529 49.5547 90.1992C49.6875 90.543 49.8815 90.8125 50.1367 91.0078C50.3919 91.2005 50.7044 91.2969 51.0742 91.2969C51.4596 91.2969 51.7813 91.1953 52.0391 90.9922C52.2995 90.7865 52.4948 90.5104 52.625 90.1641C52.7578 89.8151 52.8242 89.4271 52.8242 89C52.8242 88.5781 52.7591 88.1979 52.6289 87.8594C52.5013 87.5182 52.3073 87.2487 52.0469 87.0508C51.7891 86.8503 51.4648 86.75 51.0742 86.75C50.6992 86.75 50.3841 86.8451 50.1289 87.0352C49.8737 87.2227 49.681 87.4857 49.5508 87.8242C49.4206 88.1602 49.3555 88.5521 49.3555 89ZM55.1563 92V86H56.0469V86.9062H56.1094C56.2188 86.6094 56.4167 86.3685 56.7031 86.1836C56.9896 85.9987 57.3125 85.9062 57.6719 85.9062C57.7396 85.9062 57.8242 85.9076 57.9258 85.9102C58.0273 85.9128 58.1042 85.9167 58.1563 85.9219V86.8594C58.125 86.8516 58.0534 86.8398 57.9414 86.8242C57.832 86.806 57.7161 86.7969 57.5938 86.7969C57.3021 86.7969 57.0417 86.8581 56.8125 86.9805C56.5859 87.1003 56.4063 87.2669 56.2734 87.4805C56.1432 87.6914 56.0781 87.9323 56.0781 88.2031V92H55.1563ZM61.582 92.125C61.0039 92.125 60.5052 91.9974 60.0859 91.7422C59.6693 91.4844 59.3477 91.125 59.1211 90.6641C58.8971 90.2005 58.7852 89.6615 58.7852 89.0469C58.7852 88.4323 58.8971 87.8906 59.1211 87.4219C59.3477 86.9505 59.6628 86.5833 60.0664 86.3203C60.4727 86.0547 60.9466 85.9219 61.4883 85.9219C61.8008 85.9219 62.1094 85.974 62.4141 86.0781C62.7188 86.1823 62.9961 86.3516 63.2461 86.5859C63.4961 86.8177 63.6953 87.125 63.8438 87.5078C63.9922 87.8906 64.0664 88.362 64.0664 88.9219V89.3125H59.4414V88.5156H63.1289C63.1289 88.1771 63.0612 87.875 62.9258 87.6094C62.793 87.3437 62.6029 87.1341 62.3555 86.9805C62.1107 86.8268 61.8216 86.75 61.4883 86.75C61.1211 86.75 60.8034 86.8411 60.5352 87.0234C60.2695 87.2031 60.0651 87.4375 59.9219 87.7266C59.7786 88.0156 59.707 88.3255 59.707 88.6562V89.1875C59.707 89.6406 59.7852 90.0247 59.9414 90.3398C60.1003 90.6523 60.3203 90.8906 60.6016 91.0547C60.8828 91.2161 61.2096 91.2969 61.582 91.2969C61.8242 91.2969 62.043 91.263 62.2383 91.1953C62.4362 91.125 62.6068 91.0208 62.75 90.8828C62.8932 90.7422 63.0039 90.5677 63.082 90.3594L63.9727 90.6094C63.8789 90.9115 63.7214 91.1771 63.5 91.4062C63.2786 91.6328 63.0052 91.8099 62.6797 91.9375C62.3542 92.0625 61.9883 92.125 61.582 92.125ZM66.3906 88.3906V92H65.4688V86H66.3594V86.9375H66.4375C66.5781 86.6328 66.7917 86.388 67.0781 86.2031C67.3646 86.0156 67.7344 85.9219 68.1875 85.9219C68.5938 85.9219 68.9492 86.0052 69.2539 86.1719C69.5586 86.3359 69.7956 86.5859 69.9648 86.9219C70.1341 87.2552 70.2188 87.6771 70.2188 88.1875V92H69.2969V88.25C69.2969 87.7786 69.1745 87.4115 68.9297 87.1484C68.6849 86.8828 68.349 86.75 67.9219 86.75C67.6276 86.75 67.3646 86.8138 67.1328 86.9414C66.9036 87.069 66.7227 87.2552 66.5898 87.5C66.457 87.7448 66.3906 88.0417 66.3906 88.3906ZM74.3408 92.125C73.7992 92.125 73.3239 91.9961 72.915 91.7383C72.5088 91.4805 72.1911 91.1198 71.9619 90.6562C71.7354 90.1927 71.6221 89.651 71.6221 89.0312C71.6221 88.4062 71.7354 87.8607 71.9619 87.3945C72.1911 86.9284 72.5088 86.5664 72.915 86.3086C73.3239 86.0508 73.7992 85.9219 74.3408 85.9219C74.8825 85.9219 75.3564 86.0508 75.7627 86.3086C76.1715 86.5664 76.4893 86.9284 76.7158 87.3945C76.945 87.8607 77.0596 88.4062 77.0596 89.0312C77.0596 89.651 76.945 90.1927 76.7158 90.6562C76.4893 91.1198 76.1715 91.4805 75.7627 91.7383C75.3564 91.9961 74.8825 92.125 74.3408 92.125ZM74.3408 91.2969C74.7523 91.2969 75.0908 91.1914 75.3564 90.9805C75.6221 90.7695 75.8187 90.4922 75.9463 90.1484C76.0739 89.8047 76.1377 89.4323 76.1377 89.0312C76.1377 88.6302 76.0739 88.2565 75.9463 87.9102C75.8187 87.5638 75.6221 87.2839 75.3564 87.0703C75.0908 86.8568 74.7523 86.75 74.3408 86.75C73.9294 86.75 73.5908 86.8568 73.3252 87.0703C73.0596 87.2839 72.863 87.5638 72.7354 87.9102C72.6077 88.2565 72.5439 88.6302 72.5439 89.0312C72.5439 89.4323 72.6077 89.8047 72.7354 90.1484C72.863 90.4922 73.0596 90.7695 73.3252 90.9805C73.5908 91.1914 73.9294 91.2969 74.3408 91.2969ZM78.4668 92V86H79.3574V86.9375H79.4355C79.5605 86.6172 79.7624 86.3685 80.041 86.1914C80.3197 86.0117 80.6543 85.9219 81.0449 85.9219C81.4408 85.9219 81.7702 86.0117 82.0332 86.1914C82.2988 86.3685 82.5059 86.6172 82.6543 86.9375H82.7168C82.8704 86.6276 83.1009 86.3815 83.4082 86.1992C83.7155 86.0143 84.084 85.9219 84.5137 85.9219C85.0501 85.9219 85.4889 86.0898 85.8301 86.4258C86.1712 86.7591 86.3418 87.2786 86.3418 87.9844V92H85.4199V87.9844C85.4199 87.5417 85.2988 87.2253 85.0566 87.0352C84.8145 86.8451 84.5293 86.75 84.2012 86.75C83.7793 86.75 83.4525 86.8776 83.2207 87.1328C82.9889 87.3854 82.873 87.7057 82.873 88.0937V92H81.9355V87.8906C81.9355 87.5495 81.8249 87.2747 81.6035 87.0664C81.3822 86.8555 81.097 86.75 80.748 86.75C80.5085 86.75 80.2845 86.8138 80.0762 86.9414C79.8704 87.069 79.7038 87.2461 79.5762 87.4727C79.4512 87.6966 79.3887 87.9557 79.3887 88.25V92H78.4668ZM90.543 92.125C89.9648 92.125 89.4661 91.9974 89.0469 91.7422C88.6302 91.4844 88.3086 91.125 88.082 90.6641C87.8581 90.2005 87.7461 89.6615 87.7461 89.0469C87.7461 88.4323 87.8581 87.8906 88.082 87.4219C88.3086 86.9505 88.6237 86.5833 89.0273 86.3203C89.4336 86.0547 89.9076 85.9219 90.4492 85.9219C90.7617 85.9219 91.0703 85.974 91.375 86.0781C91.6797 86.1823 91.957 86.3516 92.207 86.5859C92.457 86.8177 92.6563 87.125 92.8047 87.5078C92.9531 87.8906 93.0273 88.362 93.0273 88.9219V89.3125H88.4023V88.5156H92.0898C92.0898 88.1771 92.0221 87.875 91.8867 87.6094C91.7539 87.3437 91.5638 87.1341 91.3164 86.9805C91.0716 86.8268 90.7826 86.75 90.4492 86.75C90.082 86.75 89.7643 86.8411 89.4961 87.0234C89.2305 87.2031 89.026 87.4375 88.8828 87.7266C88.7396 88.0156 88.668 88.3255 88.668 88.6562V89.1875C88.668 89.6406 88.7461 90.0247 88.9023 90.3398C89.0612 90.6523 89.2813 90.8906 89.5625 91.0547C89.8438 91.2161 90.1706 91.2969 90.543 91.2969C90.7852 91.2969 91.0039 91.263 91.1992 91.1953C91.3971 91.125 91.5677 91.0208 91.7109 90.8828C91.8542 90.7422 91.9648 90.5677 92.043 90.3594L92.9336 90.6094C92.8398 90.9115 92.6823 91.1771 92.4609 91.4062C92.2396 91.6328 91.9661 91.8099 91.6406 91.9375C91.3151 92.0625 90.9492 92.125 90.543 92.125Z" fill="black"/>
</svg>
